<?xml version="1.0" encoding="UTF-8"?>
<!DOCTYPE svg PUBLIC "-//W3C//DTD SVG 1.1//EN" "http://www.w3.org/Graphics/SVG/1.1/DTD/svg11.dtd">
<svg xmlns="http://www.w3.org/2000/svg" width="744" height="1052">
    <style type="text/css">.a{fill:#fff;}.b{fill:#f79123;}.c{fill:#646466;}</style>
    <path
        d="m253.3 365.1c0 0 5.7 0 5.7-5.7l0-76.5c0 0 0-5.7-5.7-5.7l-76.5 0c0 0-5.7 0-5.7 5.7l0 76.5c0 0 0 5.7 5.7 5.7l76.5 0"
        class="b"/>
    <path
        d="m268.9 277.2c0 0-5.7 0-5.7 5.7l0 31.2c0 0 0 5.7 5.7 5.7l215.4 0c0 0 5.7 0 5.7-5.7l0-31.2c0 0 0-5.7-5.7-5.7l-215.4 0"
        class="c"/>
    <path
        d="m268.9 322.6c0 0-5.7 0-5.7 5.7l0 31.2c0 0 0 5.7 5.7 5.7l215.4 0c0 0 5.7 0 5.7-5.7l0-31.2c0 0 0-5.7-5.7-5.7l-215.4 0"
        class="b"/>
    <path
        d="m360.2 294.6c-1.5 1.4-3.3 1.7-5.4 1.7 0 0-2.2 0-3.2 0l0-12.3c0.9 0 2.8 0 2.8 0 2.2 0 4 0.1 5.5 1.2 1.4 1.1 2.3 2.9 2.3 4.9 0 1.8-0.7 3.3-2 4.5zm2.3-12c-2.3-2-5.1-2.2-7.8-2.2l-6.7 0 0 35.4 3.7 0c0 0 0-14.7 0-16.1 1 0 3.1 0 3.1 0 2.3 0 5.6-0.2 8.1-2.3 1.9-1.6 3.1-4.4 3.1-7.3 0-3-1.2-5.7-3.3-7.5zm17.7-2.2-3.7 0 0 35.4 12.3 0 0-3.5c0 0-7.4 0-8.6 0 0-1.4 0-31.9 0-31.9zm36.4 35.4 17.7 0 0-3.5c0 0-12.7 0-14 0l0-14c1.3 0 13.7 0 13.7 0l0-3.5c0 0-12.3 0-13.7 0l0-10.8c1.3 0 14 0 14 0l0-3.5-17.7 0 0 35.4zm-85-21.3c-1.5 1.4-3.3 1.7-5.4 1.7 0 0-2.2 0-3.2 0l0-12.3c0.9 0 2.8 0 2.8 0 2.2 0 4 0.1 5.5 1.2 1.4 1.1 2.3 2.9 2.3 4.9 0 1.8-0.7 3.3-2 4.5zm2.3-12c-2.3-2-5.1-2.2-7.8-2.2l-6.7 0 0 35.4 3.7 0c0 0 0-14.7 0-16.1 1 0 3.1 0 3.1 0 2.3 0 5.6-0.2 8.1-2.3 1.9-1.6 3.1-4.4 3.1-7.3 0-3-1.2-5.7-3.3-7.5zm65.2 33.3 3.7 0 0-35.4-3.7 0 0 35.4zm64.4-7.4c-2.8 2.7-6 3.9-10.9 3.9 0 0-2.2 0-3.2 0l0-28.4c1 0 3.2 0 3.2 0 4.7 0 7.7 1 10.5 3.5 3 2.7 4.7 6.6 4.7 10.7 0 3.9-1.5 7.5-4.3 10.3zm2.3-23.6c-4-3.7-8.1-4.5-13.1-4.5l-6.9 0 0 35.4 6.9 0c4.4 0 9-0.6 13.3-4.7 3.5-3.4 5.4-8 5.4-13 0-5.2-2-9.9-5.6-13.3zm-177 17.1c0.7-1.6 4.5-10.4 5.5-12.8 1 2.4 4.8 11.1 5.5 12.8l-11 0zm-9.8 13.9 3.8 0c0 0 4.2-9.7 4.5-10.5l13.9 0c0.4 0.8 4.5 10.5 4.5 10.5l3.8 0-15.3-35.6-15.4 35.6"
        class="b"/>
    <path
        d="m362.9 329.5c0 0 7.5 0 8.8 0 0 1.4 0 31.9 0 31.9l3.7 0c0 0 0-30.5 0-31.9 1.3 0 8.8 0 8.8 0l0-3.5-21.2 0 0 3.5zm87.4 14.4 0 0-6.5-3.4c0 0-0.3-0.1-0.3-0.1-2.7-1.3-5.4-2.6-5.4-5.5 0-3.2 2.5-5.7 5.6-5.7 2.7 0 4.7 1.2 6.3 3.7l0.5 0.7 2.7-2.2-0.3-0.5c-1.7-3.1-5.2-5.2-8.9-5.2-5.5 0-9.4 3.9-9.4 9.3 0 2.9 1.3 5.1 3.9 6.7 0 0 6.2 3.3 6.2 3.3 0 0 0.6 0.3 0.6 0.3 2.7 1.3 5.8 2.8 5.8 5.9 0 3.9-3.5 7.3-7.6 7.3-4.3 0-6.5-3.1-7.5-5.6l-0.3-0.7-3.2 1.5 0.2 0.7c1.7 4.8 5.8 7.8 10.7 7.8 6.2 0 11.4-4.9 11.4-10.6 0-3.2-1.3-5.6-4.2-7.4zm-33.1-3.5-19.1 0c0-1.3 0-14.4 0-14.4l-3.7 0 0 35.4 3.7 0c0 0 0-16.1 0-17.5l19.1 0c0 1.4 0 17.5 0 17.5l3.7 0 0-35.4-3.7 0c0 0 0 13.1 0 14.4zm-117.1 12.8c-1.2-2.7-12.7-27.8-12.7-27.8l-8 36 3.6 0c0 0 4.7-21.4 5.5-24.9 1.5 3.3 11.6 25.3 11.6 25.3 0 0 10.1-22 11.6-25.3 0.8 3.5 5.5 24.9 5.5 24.9l3.6 0-8-36c0 0-11.5 25.1-12.8 27.8zm38.8-5.6c0.7-1.6 4.5-10.4 5.5-12.8 1 2.4 4.8 11.1 5.5 12.8l-11 0zm-9.8 13.9 3.8 0c0 0 4.2-9.7 4.5-10.5l13.9 0c0.4 0.8 4.5 10.5 4.5 10.5l3.8 0-15.3-35.6-15.4 35.6"
        class="a"/>
    <path
        d="m235.9 283.2c13 43-30.5 47.6-48.6 81.9 0 0 0 0 0 0l0.8 0c0 0 0 0 0 0 20.1-28.3 74.2-30.9 47.9-81.9"
        class="c"/>
    <path d="m221 365.1c2.2-5.5 2.9-12.6 1.6-21.6 3.9 7.8 5.3 15.3 4.8 21.6l-6.4 0 0 0" class="a"/>
    <path d="m236.3 277.2c-14.9 11.1-31.7 29.4-29 39.5-5.2-11.1 4.8-28.6 16.2-39.5l12.8 0 0 0"
        class="a"/>
    <text y="398.6" x="195.9"
        style="-inkscape-font-specification:Arial;fill:#f79123;font-family:Arial;font-size:20px;letter-spacing:0px;line-height:100%;word-spacing:0px"
            ><tspan y="398.6" x="195.9"
            style="-inkscape-font-specification:Ubuntu;fill:#f79123;font-family:Ubuntu;font-size:30px;text-align:start"
            > www.applied-maths.com</tspan></text>
</svg>
